<?xml version="1.0" standalone="no"?>
<!DOCTYPE svg PUBLIC "-//W3C//DTD SVG 20010904//EN"
 "http://www.w3.org/TR/2001/REC-SVG-20010904/DTD/svg10.dtd">
<svg version="1.0" xmlns="http://www.w3.org/2000/svg"
 width="694.000000pt" height="694.000000pt" viewBox="0 0 694.000000 694.000000"
 preserveAspectRatio="xMidYMid meet">
<metadata>
Created by potrace 1.16, written by Peter Selinger 2001-2019
</metadata>
<g transform="translate(0.000000,694.000000) scale(0.100000,-0.100000)"
fill="#000000" stroke="none">
<path d="M2104 5503 c1 -175 -23 -353 -48 -353 -13 0 -252 51 -352 76 -85 21
-125 11 -144 -36 -10 -25 -8 -41 19 -119 58 -174 86 -395 85 -681 -1 -264 -26
-475 -94 -794 -11 -54 -28 -151 -36 -214 -8 -64 -17 -118 -19 -121 -2 -3 31
-5 73 -3 85 4 335 -32 517 -73 61 -14 195 -54 300 -90 l190 -64 -755 -3 -755
-3 -68 -33 c-83 -41 -140 -96 -172 -165 -33 -69 -35 -209 -5 -275 23 -50 102
-131 165 -168 108 -63 -64 -58 2317 -61 1192 -2 2223 0 2291 5 111 7 132 12
190 40 149 73 229 232 192 376 -28 105 -111 192 -241 254 l-59 27 -815 3 -815
4 115 39 c264 92 657 171 852 173 92 1 97 2 93 21 -44 201 -99 532 -116 695
-15 149 -16 485 0 620 18 163 58 364 87 434 13 33 24 67 24 77 0 49 -52 102
-99 102 -14 -1 -66 -10 -116 -22 -49 -11 -121 -22 -159 -23 l-70 -3 -14 45
c-21 70 -26 250 -9 360 8 52 12 100 9 106 -5 8 -74 -17 -208 -75 -111 -47
-234 -99 -274 -116 -84 -34 -322 -168 -443 -249 -45 -30 -131 -95 -192 -145
-60 -50 -140 -117 -177 -147 l-67 -56 -93 84 c-275 247 -476 386 -838 578 -85
45 -162 88 -170 95 -18 15 -76 45 -88 45 -5 0 -8 -75 -8 -167z m438 -274 c36
-24 90 -58 120 -76 81 -48 291 -206 401 -302 120 -106 172 -148 189 -154 9 -3
5 -11 -12 -25 -14 -12 -28 -21 -31 -22 -3 0 -62 37 -130 81 -157 104 -213 134
-374 205 -158 69 -234 96 -345 123 -47 12 -102 29 -123 38 -33 14 -36 18 -23
32 17 19 42 106 51 177 l6 51 102 -42 c56 -24 132 -62 169 -86z m1908 103 c0
-24 20 -112 45 -198 6 -18 0 -21 -57 -32 -74 -14 -364 -107 -458 -147 -136
-58 -368 -179 -432 -226 -45 -32 -68 -44 -68 -34 0 9 -6 25 -12 36 -12 19 -5
28 77 107 217 209 485 374 775 478 63 23 118 42 123 43 4 0 7 -12 7 -27z
m-2585 -332 c39 -10 151 -35 250 -56 242 -50 451 -117 424 -136 -10 -7 -8 -8
8 -3 22 6 155 -54 198 -90 23 -19 18 -17 -50 14 -119 55 -125 50 -17 -14 43
-26 95 -62 115 -82 78 -73 218 -284 252 -381 14 -38 21 -48 26 -36 3 10 6 -2
6 -26 0 -33 10 -63 36 -110 20 -36 51 -93 68 -127 17 -35 35 -60 40 -57 11 6
1 -504 -10 -523 -4 -8 -5 17 -3 54 2 49 0 64 -7 53 -9 -12 -11 -10 -11 12 0
15 -4 30 -10 33 -15 9 -12 -30 4 -70 25 -58 8 -39 -20 23 -14 31 -26 67 -26
79 0 13 -4 20 -8 18 -5 -3 -18 23 -29 58 -12 35 -41 103 -66 151 -25 49 -42
93 -38 99 3 6 1 7 -5 3 -7 -4 -29 21 -56 61 -25 37 -68 93 -95 125 -49 54 -67
84 -36 58 11 -9 15 -9 15 -1 0 7 4 9 10 6 6 -3 7 1 3 10 -5 13 -7 14 -14 3 -7
-11 -11 -10 -19 2 -6 10 -10 11 -10 3 0 -7 -5 -13 -11 -13 -6 0 -8 7 -5 16 3
8 2 12 -4 9 -6 -3 -38 21 -73 55 -127 124 -297 211 -489 249 -24 5 -51 12 -60
16 -11 4 -18 3 -18 -4 0 -11 28 -25 130 -69 20 -8 14 -9 -35 -6 -33 3 -74 7
-92 9 -31 3 -32 3 -22 -22 5 -15 8 -35 7 -46 -3 -17 9 -23 77 -43 91 -28 198
-76 300 -137 246 -145 421 -386 546 -747 29 -85 99 -367 99 -400 0 -17 9 -57
21 -91 12 -33 19 -62 17 -64 -2 -2 -14 12 -26 32 -13 19 -19 32 -13 28 20 -12
11 14 -10 28 -15 11 -17 16 -7 20 23 10 -76 91 -165 135 -258 128 -786 279
-1072 307 -162 15 -155 16 -166 -13 -6 -14 -8 -36 -5 -48 6 -22 -8 -42 -18
-26 -2 4 11 73 30 152 58 245 72 311 89 416 31 194 39 606 16 774 -7 47 -25
145 -42 218 -16 73 -29 135 -29 138 0 4 8 3 18 -1 9 -4 49 -16 87 -25z m3041
-42 c-36 -129 -59 -230 -71 -313 -18 -120 -20 -568 -4 -713 10 -95 83 -545 95
-589 6 -21 3 -23 -40 -23 -37 0 -44 3 -39 16 4 12 7 13 14 3 14 -24 23 1 12
31 -7 18 -7 32 -2 36 5 3 9 -1 9 -9 0 -8 7 -28 16 -43 l16 -29 -8 30 c-4 17
-7 39 -8 49 0 18 -7 18 -120 12 -106 -5 -155 -13 -286 -45 -19 -5 -57 -14 -85
-20 -27 -6 -79 -20 -115 -31 -36 -11 -105 -31 -155 -46 -49 -14 -94 -30 -100
-34 -5 -4 -23 -10 -40 -14 -51 -12 -336 -156 -330 -166 5 -9 -10 -15 -18 -7
-6 6 -34 -29 -29 -37 3 -5 0 -6 -7 -2 -7 4 -19 5 -29 1 -14 -5 -14 -7 -2 -16
13 -9 13 -10 0 -8 -28 3 -53 -1 -47 -7 5 -6 -36 -54 -47 -54 -2 0 6 35 20 78
13 42 51 167 85 277 77 252 178 486 253 589 48 66 176 186 243 229 89 57 302
164 401 201 63 24 72 31 66 48 -3 12 1 27 11 38 29 31 10 37 -82 24 -48 -6
-89 -11 -91 -9 -1 1 26 12 60 25 64 22 86 36 77 45 -3 3 -57 -10 -120 -28
-126 -36 -279 -115 -376 -194 -30 -25 -61 -46 -69 -47 -7 -1 -17 -6 -21 -11
-4 -4 -2 -5 5 -1 23 14 12 -3 -41 -57 -193 -198 -299 -375 -389 -654 -41 -125
-58 -159 -58 -113 0 11 5 20 10 20 6 0 10 5 10 10 0 6 -9 10 -20 10 -17 0 -20
8 -23 88 -2 60 -3 46 -4 -44 0 -72 -3 -135 -6 -141 -3 -5 -3 -23 2 -39 8 -29
8 -29 15 14 4 23 11 42 16 42 4 0 4 -17 -1 -37 -6 -21 -20 -82 -32 -135 -12
-54 -26 -98 -31 -98 -4 0 -5 91 -1 203 3 111 8 304 9 430 2 125 6 230 10 234
3 3 6 -3 6 -15 0 -44 44 -33 48 13 10 110 121 408 198 532 52 84 157 196 226
239 87 55 241 116 328 130 50 8 63 11 31 9 -29 -2 -51 -2 -48 1 17 17 236 68
422 98 116 19 221 37 235 39 51 9 53 8 46 -15z m-2857 -2093 l844 -6 86 -37
c98 -42 184 -89 254 -140 43 -31 52 -34 92 -28 30 5 64 22 112 58 91 67 164
103 260 127 75 19 119 21 934 27 902 6 1061 2 1121 -33 41 -23 98 -106 98
-142 0 -78 -46 -151 -115 -182 -38 -18 -129 -19 -2301 -19 -1960 0 -2267 2
-2310 15 -82 24 -154 116 -154 196 0 91 106 183 200 173 19 -2 415 -6 879 -9z"/>
<path d="M1086 2215 c-129 -53 -219 -137 -252 -237 -25 -76 -16 -200 18 -259
57 -98 171 -177 283 -199 44 -8 607 -10 2120 -8 2055 3 2060 3 2120 24 90 31
115 47 171 106 68 72 97 146 97 253 0 63 -5 90 -22 127 -29 60 -129 153 -201
187 l-55 26 -2110 2 -2110 3 -59 -25z m4192 -126 c109 -24 136 -35 174 -76 54
-57 62 -127 24 -209 -28 -61 -61 -86 -141 -109 -54 -16 -204 -18 -2130 -19
l-2072 -1 -48 30 c-102 63 -136 156 -94 254 27 64 100 127 157 136 20 4 44 8
52 10 8 1 907 3 1998 4 1980 1 1982 1 2080 -20z"/>
<path d="M3757 1269 c-135 -32 -221 -142 -220 -280 1 -274 352 -380 514 -156
22 30 26 43 18 51 -8 8 -14 5 -23 -9 -6 -11 -31 -40 -56 -65 -47 -48 -100 -70
-164 -70 l-36 0 0 256 0 257 50 -6 c66 -8 116 -33 161 -79 22 -23 40 -34 44
-28 13 21 -57 89 -117 114 -46 19 -126 26 -171 15z"/>
<path d="M3471 1165 c-40 -58 -73 -105 -75 -105 -1 0 -35 45 -76 100 l-74 100
-138 0 c-76 0 -138 -3 -138 -6 0 -4 20 -30 43 -58 56 -66 237 -303 243 -319 2
-7 -18 -43 -46 -81 -49 -68 -55 -84 -26 -73 20 8 387 527 381 538 -12 18 -23
7 -94 -96z"/>
<path d="M2681 1178 c2 -46 2 -163 1 -260 l-2 -178 -37 0 c-64 1 -117 31 -137
80 -17 44 -43 50 -38 9 3 -33 32 -70 73 -94 28 -16 52 -20 129 -20 116 0 176
24 218 88 27 40 27 42 30 249 l3 208 -121 0 -122 0 3 -82z"/>
</g>
</svg>
